<svg viewBox="0 0 29 26" fill="none" xmlns="http://www.w3.org/2000/svg">
<path d="M14.608 25.152L12.34 24.252C12.388 21.636 12.664 19.068 13.168 16.548C13.672 14.028 14.272 11.592 14.968 9.24C15.688 6.864 16.36 4.644 16.984 2.58C14.968 2.196 13.216 1.92 11.728 1.752C10.264 1.584 8.944 1.5 7.768 1.5C5.992 1.5 4.552 1.668 3.448 2.004C2.368 2.34 1.732 2.832 1.54 3.48C1.516 3.576 1.492 3.66 1.468 3.732C1.468 3.804 1.468 3.888 1.468 3.984C1.468 4.656 1.804 5.304 2.476 5.928C3.148 6.552 4.108 7.08 5.356 7.512C6.604 7.92 8.068 8.172 9.748 8.268C10.66 8.316 11.488 8.244 12.232 8.052C12.976 7.86 13.348 7.464 13.348 6.864C13.348 6.336 13.084 5.856 12.556 5.424C12.028 4.992 11.368 4.644 10.576 4.38C9.784 4.116 8.992 3.984 8.2 3.984C7.576 3.984 7.048 4.08 6.616 4.272C6.208 4.44 6.004 4.728 6.004 5.136C6.028 5.376 6.088 5.544 6.184 5.64C6.304 5.736 6.448 5.832 6.616 5.928C6.76 5.976 6.832 6.048 6.832 6.144C6.832 6.216 6.748 6.24 6.58 6.216C5.884 5.856 5.536 5.448 5.536 4.992C5.536 4.488 5.836 4.152 6.436 3.984C7.06 3.792 7.72 3.696 8.416 3.696C9.352 3.696 10.276 3.864 11.188 4.2C12.124 4.512 12.892 4.944 13.492 5.496C14.116 6.048 14.428 6.684 14.428 7.404C14.428 8.172 14.128 8.784 13.528 9.24C12.952 9.696 12.22 10.02 11.332 10.212C10.468 10.38 9.604 10.464 8.74 10.464C7.396 10.464 6.088 10.248 4.816 9.816C3.544 9.384 2.488 8.772 1.648 7.98C0.832 7.164 0.424 6.204 0.424 5.1C0.424 4.524 0.544 3.948 0.784 3.372C1.288 2.148 2.008 1.308 2.944 0.852C3.88 0.371999 4.996 0.131998 6.292 0.131998C7.06 0.131998 7.948 0.191998 8.956 0.311998C9.964 0.431998 10.996 0.587998 12.052 0.779999C13.108 0.947999 14.08 1.128 14.968 1.32C15.88 1.512 16.624 1.68 17.2 1.824L17.56 0.672L18.496 2.04C19.408 2.16 20.416 2.28 21.52 2.4C22.624 2.496 23.656 2.544 24.616 2.544C25.216 2.544 25.756 2.52 26.236 2.472C26.74 2.4 27.148 2.304 27.46 2.184C27.7 2.064 27.844 1.968 27.892 1.896C27.94 1.824 27.964 1.764 27.964 1.716C28.036 1.38 28.144 1.212 28.288 1.212C28.408 1.212 28.504 1.344 28.576 1.608C28.672 2.232 28.288 2.664 27.424 2.904C26.584 3.144 25.552 3.264 24.328 3.264C23.464 3.264 22.564 3.228 21.628 3.156C20.716 3.06 19.864 2.964 19.072 2.868L19.504 3.444C19 4.62 18.46 6.072 17.884 7.8C17.332 9.504 16.804 11.352 16.3 13.344C15.796 15.312 15.388 17.316 15.076 19.356C14.764 21.372 14.608 23.304 14.608 25.152Z" fill="#F2A366"/>
</svg>
